<svg xmlns="http://www.w3.org/2000/svg" viewBox="0 0 120 80">
  <rect width="120" height="80" fill="#FCD116"/>
  <rect y="26.6667" width="120" height="26.6667" fill="#0033A0"/>
  <rect y="53.3333" width="120" height="26.6667" fill="#CE1126"/>
  <g fill="#FFFFFF">
    <g transform="translate(41.21,33.16)">
      <polygon points="0,-5 1.18,-1.62 4.76,-1.55 1.90,0.62 2.94,4.05 0,2 -2.94,4.05 -1.90,0.62 -4.76,-1.55 -1.18,-1.62"/>
    </g>
    <g transform="translate(44.68,27.14)">
      <polygon points="0,-5 1.18,-1.62 4.76,-1.55 1.90,0.62 2.94,4.05 0,2 -2.94,4.05 -1.90,0.62 -4.76,-1.55 -1.18,-1.62"/>
    </g>
    <g transform="translate(50.00,22.68)">
      <polygon points="0,-5 1.18,-1.62 4.76,-1.55 1.90,0.62 2.94,4.05 0,2 -2.94,4.05 -1.90,0.62 -4.76,-1.55 -1.18,-1.62"/>
    </g>
    <g transform="translate(56.53,20.30)">
      <polygon points="0,-5 1.18,-1.62 4.76,-1.55 1.90,0.62 2.94,4.05 0,2 -2.94,4.05 -1.90,0.62 -4.76,-1.55 -1.18,-1.62"/>
    </g>
    <g transform="translate(63.47,20.30)">
      <polygon points="0,-5 1.18,-1.62 4.76,-1.55 1.90,0.62 2.94,4.05 0,2 -2.94,4.05 -1.90,0.62 -4.76,-1.55 -1.18,-1.62"/>
    </g>
    <g transform="translate(70.00,22.68)">
      <polygon points="0,-5 1.18,-1.62 4.76,-1.55 1.90,0.62 2.94,4.05 0,2 -2.94,4.05 -1.90,0.62 -4.76,-1.55 -1.18,-1.62"/>
    </g>
    <g transform="translate(75.32,27.14)">
      <polygon points="0,-5 1.18,-1.62 4.76,-1.55 1.90,0.62 2.94,4.05 0,2 -2.94,4.05 -1.90,0.62 -4.76,-1.55 -1.18,-1.62"/>
    </g>
    <g transform="translate(78.79,33.16)">
      <polygon points="0,-5 1.18,-1.62 4.76,-1.55 1.90,0.62 2.94,4.05 0,2 -2.94,4.05 -1.90,0.62 -4.76,-1.55 -1.18,-1.62"/>
    </g>
  </g>
</svg>
